<svg xmlns="http://www.w3.org/2000/svg" viewBox="0 0 60.95 69.03"><defs><style>.cls-1{fill:#009daf;}.cls-2{fill:#0dafb9;}.cls-3{fill:#217081;}</style></defs><title>logo</title><g id="Capa_2" data-name="Capa 2"><g id="Capa_1-2" data-name="Capa 1"><path class="cls-1" d="M1.08,41.47a4.08,4.08,0,0,1-.93-2.28C-.38,32.29-1.21,0,30.1,0,60.72,0,61.25,31.16,60.9,39.06a1.09,1.09,0,0,1-1.65.89L42.77,30a1,1,0,0,1-.5-.7c-.36-2.17-2.48-11.69-11.75-11.69C21,17.64,18.76,27.4,18.44,29.1c0,.18,1.76,2,1.65,2.14L6.26,47.45Z"/><path class="cls-2" d="M29.79,43.41,55.61,13.62S61.22,22,60.83,39.26a4.63,4.63,0,0,1-1.07,2.8L43.83,60.73Z"/><path class="cls-3" d="M39.21,66l4.62-5.29L5.23,12.85S-1.18,22.61.44,40.52L20.8,65.76A8.76,8.76,0,0,0,27.63,69h5a8.78,8.78,0,0,0,6.62-3"/></g></g></svg>